<?xml version="1.0" standalone="no"?>
<!DOCTYPE svg PUBLIC "-//W3C//DTD SVG 20010904//EN"
 "http://www.w3.org/TR/2001/REC-SVG-20010904/DTD/svg10.dtd">
<svg version="1.0" xmlns="http://www.w3.org/2000/svg"
 width="423.000000pt" height="423.000000pt" viewBox="0 0 423.000000 423.000000"
 preserveAspectRatio="xMidYMid meet">
<metadata>
Created by potrace 1.14, written by Peter Selinger 2001-2017
</metadata>
<g transform="translate(0.000000,423.000000) scale(0.100000,-0.100000)"
fill="#000000" stroke="none">
<path d="M1865 3629 c-18 -7 -18 -8 -2 -8 24 -1 12 -21 -13 -21 -26 0 -213
-76 -288 -118 -38 -21 -73 -49 -88 -71 -13 -20 -43 -64 -67 -98 -95 -141 -140
-223 -158 -288 -32 -115 -12 -342 36 -413 14 -20 25 -50 25 -66 0 -16 3 -26 7
-22 4 4 13 -13 20 -36 16 -55 16 -63 -1 -48 -12 9 -18 5 -34 -27 -19 -37 -19
-69 -1 -57 5 3 9 -7 9 -23 l1 -28 17 35 c21 43 43 48 60 13 15 -34 15 -56 0
-71 -6 -6 -14 -34 -18 -61 -6 -50 1 -56 37 -29 8 6 13 0 17 -19 6 -33 1 -132
-8 -153 -4 -10 1 -19 16 -25 19 -8 24 -23 35 -95 13 -82 19 -102 49 -163 8
-16 14 -36 14 -44 0 -9 3 -13 7 -9 4 4 15 -10 24 -31 l17 -38 10 25 c6 14 11
19 11 11 1 -9 8 -6 21 9 23 26 26 44 8 37 -7 -2 -12 -10 -10 -16 3 -16 -13
-14 -27 3 -8 9 -10 28 -6 49 5 24 2 38 -9 50 -20 20 -20 43 0 51 8 3 12 11 9
17 -4 6 -13 8 -21 5 -17 -6 -18 17 -3 46 6 12 7 18 1 14 -5 -3 -12 3 -15 14
-3 11 -10 20 -17 20 -6 0 -8 -5 -3 -12 17 -28 12 -43 -12 -43 -14 0 -25 3 -25
8 0 4 5 7 10 7 6 0 10 4 10 10 0 5 -7 7 -15 4 -8 -4 -15 -2 -15 4 0 6 6 12 13
15 8 3 7 9 -6 19 -17 13 -17 17 -3 58 18 52 20 74 6 65 -6 -4 -7 -11 -4 -17 5
-7 2 -8 -5 -3 -7 4 -11 16 -8 26 3 11 2 17 -3 14 -23 -14 -21 274 4 460 25
190 42 252 79 289 17 17 35 30 39 28 9 -2 21 7 59 41 10 9 21 17 24 17 3 0 16
11 29 25 23 25 43 34 31 15 -3 -5 -1 -10 5 -10 8 0 10 9 6 26 -6 21 -4 25 12
22 10 -2 27 3 36 11 9 8 40 18 68 22 28 5 54 12 57 16 3 4 16 14 29 21 17 9
22 9 22 0 0 -6 7 -3 15 8 8 11 15 14 15 7 0 -21 38 -15 45 7 3 11 12 20 18 20
7 0 23 6 37 13 14 6 45 11 70 10 25 -1 54 -2 66 -2 11 -1 30 -10 41 -21 14
-13 23 -15 25 -8 3 8 14 5 34 -9 16 -11 46 -23 67 -27 20 -4 37 -12 37 -19 0
-7 4 -6 10 3 9 13 14 7 11 -12 0 -5 5 -8 13 -8 13 0 46 -56 46 -79 0 -6 5 -11
10 -11 6 0 10 -11 10 -24 0 -26 34 -95 60 -124 14 -15 26 -47 45 -119 4 -14 2
-23 -4 -23 -6 0 -11 8 -11 18 0 10 -17 35 -38 55 -30 29 -54 41 -116 57 -43
12 -97 22 -121 24 -24 2 -47 6 -53 10 -17 10 -26 -66 -9 -79 12 -8 12 -12 1
-23 -7 -7 -17 -12 -21 -11 -27 4 -42 -5 -60 -38 -26 -49 -21 -66 14 -48 38 20
47 8 15 -20 l-27 -24 48 -1 c30 0 46 4 42 10 -3 6 -2 10 3 10 6 0 12 -6 15
-13 3 -8 24 -14 54 -16 43 -2 51 1 61 21 l11 23 7 -23 c6 -21 40 -42 92 -57
18 -5 22 -2 22 14 0 42 -112 136 -148 123 -7 -2 -20 2 -29 10 -9 7 -28 18 -42
24 -24 10 -19 12 42 18 90 10 145 0 158 -27 6 -12 27 -35 48 -51 22 -15 43
-38 49 -50 5 -11 18 -77 27 -146 16 -117 16 -221 1 -322 -3 -20 -2 -47 3 -60
8 -19 10 -15 10 25 1 27 6 57 11 68 6 11 13 39 15 62 4 57 15 88 29 85 6 -1
28 4 49 12 32 12 37 18 33 36 -3 12 1 35 9 50 8 16 15 48 15 71 0 62 14 93 39
86 23 -6 27 7 10 38 -9 17 -7 20 8 17 16 -3 18 3 14 41 -1 25 -9 51 -17 58
-17 17 -19 74 -3 90 6 6 11 32 11 58 1 28 6 49 14 52 18 7 3 42 -57 134 -39
60 -52 92 -63 150 -14 73 -16 75 -88 144 -40 38 -76 69 -81 67 -13 -4 -77 49
-77 64 0 8 -10 14 -24 14 -14 0 -31 9 -39 20 -8 11 -17 17 -20 14 -3 -4 -22
-3 -42 0 -25 5 -39 14 -45 31 -7 18 -14 23 -26 18 -11 -4 -15 -2 -11 4 4 7
-16 13 -56 16 -34 3 -87 13 -117 21 -59 18 -277 21 -315 5z m535 -993 c0 -3
-4 -8 -10 -11 -5 -3 -10 -1 -10 4 0 6 5 11 10 11 6 0 10 -2 10 -4z m-860 -779
c0 -8 -7 -14 -15 -14 -25 0 -17 17 13 26 1 1 2 -5 2 -12z"/>
<path d="M2470 3020 c0 -5 5 -10 10 -10 6 0 10 5 10 10 0 6 -4 10 -10 10 -5 0
-10 -4 -10 -10z"/>
<path d="M1798 2854 c-5 -5 -70 -12 -123 -13 -27 -1 -105 -52 -105 -68 0 -7
-4 -13 -10 -13 -5 0 -10 -7 -10 -16 0 -8 -4 -12 -10 -9 -5 3 -10 -3 -10 -14 0
-12 5 -21 11 -21 6 0 9 -7 5 -15 -9 -24 6 -17 46 21 21 19 42 32 48 29 6 -3 7
1 4 9 -4 11 0 16 10 16 9 0 16 5 16 11 0 12 84 7 140 -9 l35 -10 -33 -7 c-18
-4 -35 -12 -38 -16 -3 -5 -16 -9 -29 -9 -49 0 -101 -30 -134 -77 -37 -52 -31
-64 27 -53 55 11 69 19 75 42 6 22 27 16 27 -8 0 -10 13 -14 50 -14 43 0 50 3
50 20 0 11 4 20 8 20 15 0 62 -25 62 -32 0 -11 28 -10 34 1 3 5 -9 18 -27 30
-43 28 -11 28 43 1 38 -20 40 -20 40 -2 0 10 -3 22 -7 26 -8 7 -32 92 -33 114
0 7 5 10 10 7 24 -15 7 14 -22 39 -26 21 -42 26 -88 26 -31 0 -59 -3 -62 -6z
m16 -153 c3 -4 -6 -6 -19 -3 -14 2 -25 6 -25 8 0 8 39 4 44 -5z"/>
<path d="M2256 2804 c-4 -9 -4 -19 -1 -22 2 -3 7 3 11 12 4 9 4 19 1 22 -2 3
-7 -3 -11 -12z"/>
<path d="M1655 2549 c-12 -18 107 -28 179 -15 63 12 39 23 -29 13 -43 -6 -79
-6 -105 1 -22 5 -42 6 -45 1z"/>
<path d="M2325 2519 c11 -7 22 -13 25 -13 3 1 20 -3 38 -7 19 -4 51 -2 80 6
l47 13 -60 -1 c-33 -1 -80 2 -105 7 -38 6 -42 5 -25 -5z"/>
<path d="M1928 2299 c-10 -5 -18 -18 -18 -29 0 -22 49 -60 78 -60 12 0 24 -5
28 -12 4 -6 3 -8 -4 -4 -6 3 -15 -2 -21 -11 -10 -17 -10 -17 -11 0 0 21 -7 22
-26 3 -13 -14 -20 -66 -8 -66 3 0 14 5 24 10 14 8 21 6 27 -4 11 -19 93 -10
93 10 0 8 5 14 10 14 6 0 10 -4 10 -8 0 -10 61 -35 79 -33 7 1 20 -1 30 -5 9
-4 31 -6 49 -5 18 2 32 -2 32 -9 0 -6 5 -8 12 -4 21 13 48 11 48 -3 0 -7 7
-16 15 -19 8 -4 15 -12 15 -20 0 -7 12 -24 26 -38 21 -19 25 -30 20 -51 -4
-15 -3 -24 2 -21 5 3 6 -9 4 -27 -4 -28 -3 -30 11 -19 13 11 16 10 20 -5 4
-16 5 -16 6 2 1 11 8 29 16 39 9 12 12 28 9 40 -4 12 -8 28 -9 36 -4 44 -19
98 -31 118 -16 25 -34 29 -34 8 0 -11 -11 -14 -45 -11 -44 3 -62 13 -83 50 -6
11 -12 14 -12 7 0 -9 -6 -9 -23 3 -17 11 -43 14 -93 12 l-69 -4 25 29 c19 21
33 28 62 28 21 0 38 -4 38 -9 0 -14 34 -8 46 8 15 19 -11 46 -51 54 -34 6 -85
-16 -85 -37 0 -8 -9 -16 -20 -19 -15 -4 -20 0 -21 16 -1 20 -2 20 -9 -3 -4
-14 -8 -20 -9 -15 -1 6 -14 25 -29 43 -23 26 -35 32 -67 32 -22 0 -48 -5 -57
-11z"/>
<path d="M1704 2185 c-4 -8 -11 -15 -18 -15 -15 0 -36 -69 -36 -119 0 -31 -7
-47 -35 -77 -35 -36 -44 -51 -26 -39 5 3 12 1 16 -5 3 -5 1 -10 -4 -10 -6 0
-11 -10 -10 -22 0 -13 3 -17 6 -10 3 7 16 17 29 22 13 5 24 17 24 27 0 10 18
36 40 57 39 39 70 54 70 35 0 -12 49 -59 61 -59 5 0 9 5 9 10 0 17 38 53 48
46 6 -3 13 1 16 10 4 11 13 14 30 10 16 -4 28 0 37 11 13 15 11 16 -14 11 -15
-3 -30 -2 -32 3 -3 4 -14 6 -24 4 -66 -13 -111 -16 -111 -9 1 5 7 20 15 34 23
41 19 48 -28 46 -42 -3 -43 -2 -39 26 5 30 -14 40 -24 13z"/>
<path d="M2000 2049 c0 -5 5 -7 10 -4 6 3 10 8 10 11 0 2 -4 4 -10 4 -5 0 -10
-5 -10 -11z"/>
<path d="M2285 2038 c-3 -8 1 -28 10 -44 8 -16 15 -37 15 -46 0 -25 15 -22 50
10 34 30 33 52 -3 70 -42 21 -67 24 -72 10z"/>
<path d="M2225 2030 c3 -5 8 -10 11 -10 2 0 4 5 4 10 0 6 -5 10 -11 10 -5 0
-7 -4 -4 -10z"/>
<path d="M2677 2023 c-11 -10 -8 -43 3 -43 6 0 10 11 10 25 0 26 -2 29 -13 18z"/>
<path d="M2591 1993 c0 -12 -4 -30 -7 -40 -5 -14 -4 -15 5 -7 7 6 11 24 8 40
-3 21 -4 23 -6 7z"/>
<path d="M1541 1984 c0 -11 3 -14 6 -6 3 7 2 16 -1 19 -3 4 -6 -2 -5 -13z"/>
<path d="M2020 1946 c0 -8 61 -12 66 -4 3 4 -11 8 -30 8 -20 0 -36 -2 -36 -4z"/>
<path d="M2210 1940 c0 -5 5 -10 10 -10 6 0 10 5 10 10 0 6 -4 10 -10 10 -5 0
-10 -4 -10 -10z"/>
<path d="M2490 1888 c0 -19 2 -20 10 -8 13 19 13 30 0 30 -5 0 -10 -10 -10
-22z"/>
<path d="M2611 1874 c0 -11 3 -14 6 -6 3 7 2 16 -1 19 -3 4 -6 -2 -5 -13z"/>
<path d="M2541 1844 c0 -11 3 -14 6 -6 3 7 2 16 -1 19 -3 4 -6 -2 -5 -13z"/>
<path d="M2630 1845 c0 -8 -7 -15 -15 -15 -9 0 -12 -6 -9 -15 7 -18 -17 -20
-34 -3 -9 9 -12 9 -12 0 0 -6 7 -15 16 -20 12 -7 14 -13 6 -28 -6 -10 -13 -31
-17 -46 -3 -16 -12 -28 -19 -28 -8 0 -16 -11 -18 -24 -5 -26 16 -26 26 0 3 8
10 14 16 14 6 0 8 -5 4 -12 -4 -7 -3 -8 4 -4 7 4 12 13 12 19 0 7 14 39 30 70
30 58 39 107 20 107 -5 0 -10 -7 -10 -15z"/>
<path d="M2025 1790 c-3 -5 -1 -10 4 -10 6 0 11 5 11 10 0 6 -2 10 -4 10 -3 0
-8 -4 -11 -10z"/>
<path d="M2046 1775 c-6 -18 2 -45 15 -45 11 0 24 49 15 57 -3 4 -6 -3 -6 -15
0 -12 -4 -22 -9 -22 -5 0 -7 9 -4 20 6 23 -2 27 -11 5z"/>
<path d="M1600 1760 c0 -5 5 -10 11 -10 5 0 7 5 4 10 -3 6 -8 10 -11 10 -2 0
-4 -4 -4 -10z"/>
<path d="M1688 1739 c-10 -6 -18 -20 -18 -33 0 -13 -7 -29 -15 -36 -20 -16
-19 -30 1 -30 14 0 14 -3 4 -15 -10 -13 -15 -13 -21 -3 -4 7 -11 9 -15 5 -4
-3 -1 -13 6 -22 16 -19 6 -47 -15 -39 -8 3 -15 1 -15 -5 0 -6 7 -11 16 -11 12
0 14 -3 6 -13 -7 -8 -7 -18 -2 -27 6 -8 10 -25 10 -38 0 -13 4 -20 10 -17 6 3
10 -4 10 -15 0 -13 8 -24 19 -27 11 -3 26 -19 35 -36 9 -18 16 -27 16 -20 0
13 80 -35 80 -48 0 -16 53 -60 66 -55 9 3 14 -2 14 -14 0 -10 9 -22 20 -25 11
-4 31 -18 44 -31 33 -36 67 -37 106 -3 18 16 36 26 41 23 5 -3 19 4 31 15 12
12 28 21 35 21 7 0 13 8 14 18 0 10 3 12 6 4 3 -9 15 -3 39 18 19 16 39 30 44
30 6 0 10 8 11 18 0 12 2 13 6 3 4 -9 23 6 59 45 30 32 55 54 56 49 0 -6 4 10
7 35 5 36 10 44 24 42 29 -5 27 73 -4 101 -10 10 -19 24 -19 32 0 24 -43 11
-57 -16 l-12 -23 -10 24 c-7 18 -10 20 -10 8 -1 -14 -10 -18 -41 -18 -23 0
-40 -5 -40 -11 0 -6 -7 -8 -16 -5 -9 4 -23 1 -30 -5 -7 -6 -19 -9 -26 -6 -7 2
-27 -1 -45 -8 -17 -8 -34 -11 -37 -7 -3 3 -6 0 -6 -8 0 -10 -3 -10 -17 1 -13
11 -17 11 -20 2 -7 -19 -43 -16 -43 3 0 13 -7 15 -30 10 -22 -4 -36 0 -49 13
-18 18 -20 18 -26 3 -6 -16 -8 -15 -20 2 -8 10 -18 15 -24 11 -7 -3 -11 2 -11
14 0 23 -10 27 -27 10 -7 -7 -15 -2 -27 15 -9 15 -23 26 -31 26 -11 0 -14 7
-9 25 5 19 2 25 -9 25 -9 0 -17 6 -19 14 -2 11 -8 12 -20 5z m26 -54 c-7 -16
-24 -21 -24 -6 0 8 7 13 27 20 1 1 0 -6 -3 -14z m-24 -100 c0 -12 -19 -12 -23
0 -4 9 -1 12 9 8 7 -3 14 -7 14 -8z"/>
<path d="M2416 1482 c-2 -4 -1 -14 5 -22 7 -12 9 -10 9 8 0 23 -5 28 -14 14z"/>
<path d="M2611 1363 c24 -47 24 -93 0 -251 -26 -171 -29 -219 -41 -637 -6
-198 -13 -386 -16 -417 l-6 -58 371 0 c204 0 371 3 371 8 0 4 15 24 33 45 32
38 32 38 53 19 11 -11 30 -25 42 -31 12 -6 22 -18 22 -26 0 -13 48 -15 341
-15 l341 0 -6 23 c-11 34 -24 148 -35 287 -6 69 -17 150 -26 180 -44 156 -67
241 -79 295 -21 102 -33 119 -91 126 -64 9 -322 54 -417 74 -40 8 -86 15 -103
15 -38 0 -221 37 -422 86 -38 10 -84 27 -103 39 -47 29 -164 155 -190 202 -37
71 -74 104 -39 36z"/>
<path d="M2540 1293 c-1 -79 -14 -161 -35 -218 -6 -14 -5 -17 3 -10 35 33 73
315 42 315 -6 0 -10 -36 -10 -87z"/>
<path d="M1522 1233 c-11 -21 -23 -49 -27 -62 -4 -13 -18 -35 -30 -50 -13 -14
-36 -43 -52 -64 -22 -30 -43 -44 -98 -64 -218 -78 -347 -121 -381 -127 -37 -7
-351 -104 -424 -131 -19 -8 -46 -16 -60 -19 -47 -10 -68 -58 -105 -246 -9 -47
-28 -132 -42 -189 -14 -57 -33 -143 -43 -192 l-17 -89 611 0 611 0 0 338 c0
266 3 346 15 382 10 32 13 81 11 170 -4 141 11 264 40 329 24 55 17 66 -9 14z"/>
<path d="M1562 1000 c0 -14 2 -19 5 -12 2 6 2 18 0 25 -3 6 -5 1 -5 -13z"/>
<path d="M1566 740 c10 -21 19 -30 22 -21 2 7 -6 23 -18 35 l-22 21 18 -35z"/>
<path d="M1610 695 c0 -8 5 -15 10 -15 6 0 10 7 10 15 0 8 -4 15 -10 15 -5 0
-10 -7 -10 -15z"/>
<path d="M1521 684 c0 -11 3 -14 6 -6 3 7 2 16 -1 19 -3 4 -6 -2 -5 -13z"/>
<path d="M2490 610 c0 -5 5 -10 10 -10 6 0 10 5 10 10 0 6 -4 10 -10 10 -5 0
-10 -4 -10 -10z"/>
<path d="M1994 198 c-4 -7 -4 -10 1 -6 4 4 16 3 26 -3 15 -7 17 -6 13 6 -7 18
-30 20 -40 3z"/>
<path d="M3380 14 c0 -8 5 -12 10 -9 6 3 10 10 10 16 0 5 -4 9 -10 9 -5 0 -10
-7 -10 -16z"/>
</g>
</svg>
